<?xml version="1.0" standalone="no"?>
<!DOCTYPE svg PUBLIC "-//W3C//DTD SVG 20010904//EN"
 "http://www.w3.org/TR/2001/REC-SVG-20010904/DTD/svg10.dtd">
<svg version="1.0" xmlns="http://www.w3.org/2000/svg"
 width="410.000000pt" height="410.000000pt" viewBox="0 0 410.000000 410.000000"
 preserveAspectRatio="xMidYMid meet">
<metadata>
Created by potrace 1.14, written by Peter Selinger 2001-2017
</metadata>
<g transform="translate(0.000000,410.000000) scale(0.100000,-0.100000)"
fill="#000000" stroke="none">
<path d="M1086 3203 c-2 -2 -16 -6 -32 -9 -329 -57 -745 -332 -938 -619 -41
-60 -95 -164 -99 -191 -1 -10 -6 -24 -9 -30 -4 -6 -6 -49 -4 -95 3 -61 10 -98
26 -132 24 -50 92 -117 120 -117 9 0 20 -3 24 -7 12 -12 76 -10 87 3 6 7 12
30 14 51 1 21 8 51 14 66 6 16 11 31 11 33 0 16 74 174 81 174 5 0 9 6 9 14 0
19 105 176 170 256 105 127 288 300 318 300 5 0 12 6 15 13 7 18 163 94 226
111 71 18 128 13 155 -13 18 -18 21 -33 21 -99 0 -42 -3 -91 -7 -109 -9 -47
-39 -136 -49 -147 -5 -6 -9 -17 -9 -25 0 -18 -93 -203 -131 -259 -16 -24 -29
-47 -29 -52 0 -5 -6 -13 -13 -17 -7 -4 -20 -20 -29 -34 -30 -47 -121 -141
-177 -182 -52 -39 -148 -83 -158 -73 -5 5 17 79 40 141 7 16 43 93 82 170 38
77 68 147 66 155 -5 28 -19 33 -53 19 -46 -18 -224 -199 -211 -213 4 -3 2 -6
-4 -6 -11 0 -92 -122 -139 -209 -15 -29 -38 -63 -51 -75 -12 -11 -23 -32 -23
-46 0 -21 -6 -46 -25 -110 -1 -3 -5 -12 -8 -20 -18 -44 -38 -165 -39 -237 -1
-127 27 -224 83 -288 63 -72 153 -95 257 -66 48 13 50 23 23 84 -50 110 -66
266 -47 465 4 34 5 62 4 62 -2 1 -21 3 -43 6 -67 10 -58 19 18 20 102 0 215
22 245 46 6 6 12 8 12 5 0 -4 21 5 46 18 26 14 53 25 60 25 8 0 14 5 14 10 0
6 6 10 13 10 6 0 57 30 111 67 107 72 277 233 343 323 44 61 115 180 107 180
-2 0 4 17 15 38 10 20 19 39 19 42 1 3 3 12 6 20 21 63 27 193 13 275 -14 82
-55 160 -105 199 -33 26 -107 64 -142 73 -27 7 -287 12 -294 6z"/>
<path d="M2874 2995 c-30 -29 -89 -108 -133 -174 -90 -139 -277 -504 -306
-601 -31 -104 -113 -185 -190 -190 -62 -4 -64 -3 -55 33 5 17 12 46 15 62 9
52 6 230 -5 230 -1 0 -3 8 -5 17 -6 31 -58 95 -89 108 -93 41 -265 -6 -396
-109 -279 -220 -407 -602 -269 -806 13 -19 36 -41 52 -48 15 -6 27 -16 27 -20
0 -5 4 -6 9 -2 5 3 12 1 15 -4 7 -11 163 -11 186 0 8 3 38 17 65 30 28 12 55
26 60 31 82 64 139 121 197 197 23 31 24 35 11 62 -15 30 -61 72 -110 101 -27
16 -29 15 -73 -14 -41 -28 -98 -42 -128 -30 -22 8 -39 55 -36 102 2 30 18 76
49 135 80 159 196 250 270 212 29 -15 35 -27 35 -75 l0 -43 -30 16 c-74 38
-150 -9 -150 -95 0 -52 69 -170 100 -170 5 0 10 -4 10 -8 0 -13 91 -36 140
-36 70 1 132 21 189 61 l24 17 -8 -49 c-8 -58 -8 -148 0 -178 14 -50 51 -111
82 -134 18 -14 42 -40 53 -59 13 -20 41 -43 73 -58 44 -22 63 -25 127 -22 82
4 88 5 143 29 165 71 316 247 391 455 33 93 41 139 41 252 0 114 -18 170 -73
222 -42 40 -81 56 -132 53 -131 -9 -216 -51 -326 -163 l-57 -57 44 63 c56 81
69 106 70 132 1 3 4 10 9 15 4 6 13 28 20 50 7 22 19 50 27 63 7 12 11 27 8
32 -3 6 -2 10 3 10 6 0 12 10 16 23 3 13 13 41 23 63 9 21 17 41 18 44 0 3 15
43 34 89 33 84 51 180 35 182 -5 0 -17 2 -28 4 -12 2 -37 -15 -72 -50z m163
-681 c28 -28 23 -134 -11 -209 -58 -128 -148 -240 -223 -276 -151 -73 -196 55
-91 254 18 34 36 64 40 65 5 2 8 8 8 13 0 10 37 54 85 101 38 38 118 76 150
73 13 -2 33 -11 42 -21z"/>
<path d="M3607 2452 c-46 -39 -48 -40 -104 -114 -29 -37 -69 -98 -89 -135 -21
-38 -41 -70 -44 -73 -8 -6 -101 -231 -106 -255 -1 -5 -3 -12 -4 -15 -8 -23
-23 -121 -23 -155 0 -82 5 -104 30 -143 46 -70 122 -86 205 -43 57 30 163 132
215 209 20 28 38 50 40 48 2 -2 -17 -44 -43 -92 -72 -135 -85 -158 -98 -166
-6 -4 -7 -8 -1 -8 7 0 7 -3 0 -8 -6 -4 -22 -26 -37 -48 -81 -126 -195 -216
-273 -216 -46 0 -115 36 -145 77 -14 19 -30 36 -35 39 -19 7 -47 -22 -50 -52
-1 -16 -5 -33 -8 -39 -12 -18 -1 -148 17 -199 28 -83 113 -158 196 -171 47 -7
113 -4 149 8 44 14 131 79 168 126 16 19 35 42 45 51 29 30 115 176 171 293
63 128 105 232 149 364 16 50 34 99 38 110 11 25 70 237 76 273 3 15 7 35 10
44 3 10 7 30 10 45 3 16 7 35 9 43 7 23 18 131 18 169 -1 58 -59 77 -85 27 -6
-11 -14 -23 -17 -26 -7 -6 -12 -14 -83 -150 -74 -140 -95 -177 -130 -227 -84
-124 -174 -177 -218 -131 -11 12 -17 25 -14 30 3 4 0 8 -6 8 -7 0 -8 6 -1 19
6 10 8 21 4 24 -12 13 68 264 89 278 5 3 8 8 7 10 -2 2 9 34 25 71 31 73 30
112 -4 121 -13 3 -32 -4 -53 -21z"/>
<path d="M888 1855 c-6 -6 -91 -17 -153 -19 -47 -1 -47 7 0 -131 34 -99 89
-224 142 -320 36 -64 114 -179 125 -183 4 -2 8 -9 8 -15 0 -6 40 -49 88 -96
153 -150 277 -196 445 -167 59 10 131 51 171 97 54 63 78 137 81 247 1 50 0
92 -2 92 -2 0 -16 -6 -31 -14 -92 -46 -268 -51 -373 -10 -87 34 -227 146 -299
240 -40 51 -89 125 -130 198 -43 75 -59 94 -72 81z"/>
</g>
</svg>
